<?xml version="1.0" encoding="utf-8"?>
<!-- Generator: Adobe Illustrator 16.0.0, SVG Export Plug-In . SVG Version: 6.00 Build 0)  -->
<!DOCTYPE svg PUBLIC "-//W3C//DTD SVG 1.1//EN" "http://www.w3.org/Graphics/SVG/1.1/DTD/svg11.dtd">
<svg version="1.1" id="Layer_1" xmlns="http://www.w3.org/2000/svg" xmlns:xlink="http://www.w3.org/1999/xlink" x="0px" y="0px"
	 width="300px" height="300px" viewBox="0 0 300 300" enable-background="new 0 0 300 300" xml:space="preserve">
<g>
	<defs>
		<rect id="SVGID_1_" width="300" height="300"/>
	</defs>
	<clipPath id="SVGID_2_">
		<use xlink:href="#SVGID_1_"  overflow="visible"/>
	</clipPath>
	<path clip-path="url(#SVGID_2_)" fill="#231F20" d="M77.174,118.374c15.334-2.123,39.634,12.739,67.943,7.785
		c28.31-4.954,34.444-7.785,39.634-11.796c5.189-4.01,8.965-8.257,8.965-8.257l3.538,5.191c0,0,16.514-9.909,39.634-8.965
		c23.12,0.943,35.858,11.56,39.634,15.098c3.774,3.539,10.145,14.863,8.964,15.807c-1.179,0.943-3.303-6.134-7.077-8.021
		c-3.774-1.888-6.134-2.596-7.077-4.011c-0.943-1.416-0.943-6.606-4.246-8.257c-3.304-1.651-21.232-2.595-42.937,16.042
		c-21.705,18.637-49.616,39.84-56.855,44.824c-4.534,3.121-4.206,3.183-8.965,6.37c-0.589,0.393,5.427,9.907,12.976,13.918
		s15.806,7.55,16.042,10.145s-20.525,3.774-29.489,0c-8.965-3.775-23.513-11.339-26.423-14.092c5.741-1.337,14.413-4.577,16.75-5.21
		c1.306-0.003,2.407,0.744,4.954,1.297c2.713,0.59,4.123,0.531,6.134-0.412c-4.423-0.59-6.604-2.58-7.312-3.759
		c-0.708-1.181,1.072-6.697,3.49-10.868c-1.632-0.75-5.614,7.565-8.208,8.509c-2.596,0.943-15.571,3.067-24.536,0.236
		c-6.249-1.975-10.802-4.222-12.556-5.306c-0.622-0.386-0.769-1.227-0.301-1.788c1.228-1.473,4.33-3.942,6.488-4.938
		c3.067-1.415-11.088,0.708-13.683,2.359c-2.595,1.651-12.504-8.965-15.807-4.246c-3.302,4.718,5.191,15.098,5.191,15.098
		l0.236,9.673c0,0-22.783-4.438-30.591-6.92c-7.274-2.313-21.939-7.193-19.895-9.044c1.651-1.494,16.278-2.123,18.401-6.448
		c0.294-0.599-10.301,1.338-18.185,0.473c-8.121-0.892-15.629-3.226-16.494-5.898c-1.346-4.159,3.03-16.868,12.739-26.423
		C50.732,124.253,60.9,120.627,77.174,118.374"/>
	<path clip-path="url(#SVGID_2_)" fill="none" stroke="#FFFFFF" stroke-width="5" stroke-miterlimit="10" d="M77.174,118.374
		c15.334-2.123,39.634,12.739,67.943,7.785c28.31-4.954,34.444-7.785,39.634-11.796c5.189-4.01,8.965-8.257,8.965-8.257l3.538,5.191
		c0,0,16.514-9.909,39.634-8.965c23.12,0.943,35.858,11.56,39.634,15.098c3.774,3.539,10.145,14.863,8.964,15.807
		c-1.179,0.943-3.303-6.134-7.077-8.021c-3.774-1.888-6.134-2.596-7.077-4.011c-0.943-1.416-0.943-6.606-4.246-8.257
		c-3.304-1.651-21.232-2.595-42.937,16.042c-21.705,18.637-49.616,39.84-56.855,44.824c-4.534,3.121-4.206,3.183-8.965,6.37
		c-0.589,0.393,5.427,9.907,12.976,13.918s15.806,7.55,16.042,10.145s-20.525,3.774-29.489,0
		c-8.965-3.775-23.513-11.339-26.423-14.092c5.741-1.337,14.413-4.577,16.75-5.21c1.306-0.003,2.407,0.744,4.954,1.297
		c2.713,0.59,4.123,0.531,6.134-0.412c-4.423-0.59-6.604-2.58-7.312-3.759c-0.708-1.181,1.072-6.697,3.49-10.868
		c-1.632-0.75-5.614,7.565-8.208,8.509c-2.596,0.943-15.571,3.067-24.536,0.236c-6.249-1.975-10.802-4.222-12.556-5.306
		c-0.622-0.386-0.769-1.227-0.301-1.788c1.228-1.473,4.33-3.942,6.488-4.938c3.067-1.415-11.088,0.708-13.683,2.359
		c-2.595,1.651-12.504-8.965-15.807-4.246c-3.302,4.718,5.191,15.098,5.191,15.098l0.236,9.673c0,0-22.783-4.438-30.591-6.92
		c-7.274-2.313-21.939-7.193-19.895-9.044c1.651-1.494,16.278-2.123,18.401-6.448c0.294-0.599-10.301,1.338-18.185,0.473
		c-8.121-0.892-15.629-3.226-16.494-5.898c-1.346-4.159,3.03-16.868,12.739-26.423C50.732,124.253,60.9,120.627,77.174,118.374z"/>
	<path clip-path="url(#SVGID_2_)" fill="#231F20" d="M77.174,118.374c16.005-0.774,39.634,12.739,67.943,7.785
		c28.31-4.954,34.444-7.785,39.634-11.796c5.189-4.01,8.965-8.257,8.965-8.257l3.538,5.191c0,0,16.514-9.909,39.634-8.965
		c23.12,0.943,35.858,11.56,39.634,15.098c3.774,3.539,10.145,14.863,8.964,15.807c-1.179,0.943-3.303-6.134-7.077-8.021
		c-3.774-1.888-6.134-2.596-7.077-4.011c-0.943-1.416-0.943-6.606-4.246-8.257c-3.304-1.651-21.232-2.595-42.937,16.042
		c-21.705,18.637-49.616,39.84-56.855,44.824c-4.534,3.121-4.206,3.183-8.965,6.37c-0.589,0.393,5.427,9.907,12.976,13.918
		s15.806,7.55,16.042,10.145s-20.525,3.774-29.489,0c-8.965-3.775-23.513-11.339-26.423-14.092c5.741-1.337,14.413-4.577,16.75-5.21
		c1.306-0.003,2.407,0.744,4.954,1.297c2.713,0.59,4.123,0.531,6.134-0.412c-4.423-0.59-6.604-2.58-7.312-3.759
		c-0.708-1.181,1.072-6.697,3.49-10.868c-1.632-0.75-5.614,7.565-8.208,8.509c-2.596,0.943-15.654,2.413-25.182,0.667
		c-8.119-1.486-11.032-3.718-12.519-5.082c-0.539-0.494-0.584-1.783-0.115-2.345c1.228-1.472,4.753-4.04,6.911-5.036
		c3.067-1.415-11.343,1.812-14.233,2.919c-2.872,1.102-11.954-9.524-15.257-4.806c-2.819,4.026,2.956,12.179,4.708,14.48
		c0.317,0.416,0.49,0.921,0.503,1.445l0.216,8.845c0,0-22.783-4.438-30.591-6.92c-7.274-2.313-21.939-7.193-19.895-9.044
		c1.651-1.494,16.278-2.123,18.401-6.448c0.294-0.599-10.301,1.338-18.185,0.473c-8.121-0.892-15.629-3.226-16.494-5.898
		c-1.346-4.159,3.176-18.083,12.885-27.638C50.877,123.037,60.765,119.168,77.174,118.374"/>
	<path clip-path="url(#SVGID_2_)" fill="#231F20" d="M97.049,187.187c0.295-1.062,1.605-1.043,2.211-0.746
		c2.394,1.173,4.301,2.476,9.172,3.636c4.771,1.136,6.134,1.651,11.324,1.651c-4.911,1.478-8.546,1.286-12.504,1.062
		c-3.724-0.211-11.324-1.533-11.324-1.533S96.754,188.248,97.049,187.187"/>
</g>
</svg>
